# File created by Blade
# Date/Time:  Tue Jan 27 18:55:59 2015
#---------------------------------------------------------
:version 1.10
:name HOM
:units
  mass 1.0
  length 1.000000
  angle deg
:documentation
     Acclaim Skeleton File
:root
   axis xyz
   order TX TY TZ RX RY RZ
   position 0.000000 0.000000 0.000000
   orientation 0 0 0
:bonedata
   begin
      id 1
      name Spine_dum
      direction 0.000000 1.000000 0.000000
      length 5.195262
      axis 0.0 0.0 0.0 xyz
   end
   begin
      id 2
      name LeftUpLeg_dum
      direction 1.000000 0.000000 0.000000
      length 3.351363
      axis 0.0 0.0 0.0 xyz
   end
   begin
      id 3
      name RightUpLeg_dum
      direction -1.000000 0.000000 0.000000
      length 3.351363
      axis 0.0 0.0 0.0 xyz
   end
   begin
      id 4
      name Spine
      direction 0.000000 1.000000 0.000000
      length 0.000000
      axis 0.0 0.0 0.0 xyz
      dof rx ry rz
   end
   begin
      id 5
      name Spine_dum1
      direction 0.000000 1.000000 0.000000
      length 15.653875
      axis 0.0 0.0 0.0 xyz
   end
   begin
      id 6
      name Spine_dum2
      direction 0.000000 1.000000 0.000000
      length 10.329768
      axis 0.0 0.0 0.0 xyz
   end
   begin
      id 7
      name Spine_dum3
      direction 0.000000 1.000000 0.000000
      length 10.329768
      axis 0.0 0.0 0.0 xyz
   end
   begin
      id 8
      name Head
      direction 0.000000 1.000000 0.000000
      length 4.527550
      axis 0.0 0.0 0.0 xyz
      dof rx ry rz
   end
   begin
      id 9
      name LeftShoulder
      direction 1.000000 0.000000 0.000000
      length 6.996006
      axis 0.0 0.0 -90.0 xyz
      dof rx ry rz
   end
   begin
      id 10
      name LeftArm
      direction 1.000000 0.000000 0.000000
      length 10.209302
      axis 0.0 0.0 -90.0 xyz
      dof rx ry rz
   end
   begin
      id 11
      name LeftForeArm
      direction 1.000000 0.000000 0.000000
      length 8.563163
      axis 0.0 0.0 -90.0 xyz
      dof ry rz rx
   end
   begin
      id 12
      name LeftHand
      direction 0.000000 0.000000 0.000000
      length 0.000000
      axis 0.0 0.0 -90.0 xyz
      dof rx ry rz
   end
   begin
      id 13
      name LeftHand_dum1
      direction 0.000000 0.000000 0.000000
      length 0.000000
      axis 0.0 0.0 -90.0 xyz
   end
   begin
      id 14
      name LeftHand_dum2
      direction 1.000000 0.000000 0.000000
      length 3.937000
      axis 0.0 0.0 -90.0 xyz
   end
   begin
      id 15
      name LeftHandThumb1
      direction 0.000000 0.000000 1.000000
      length 3.937000
      axis 0.0 0.0 -90.0 xyz
      dof rx rz ry
   end
   begin
      id 16
      name RightShoulder
      direction -1.000000 0.000000 0.000000
      length 6.996006
      axis 0.0 0.0 90.0 xyz
      dof rx ry rz
   end
   begin
      id 17
      name RightArm
      direction -1.000000 0.000000 0.000000
      length 10.209302
      axis 0.0 0.0 90.0 xyz
      dof rx ry rz
   end
   begin
      id 18
      name RightForeArm
      direction -1.000000 0.000000 0.000000
      length 8.563163
      axis 0.0 0.0 90.0 xyz
      dof ry rz rx
   end
   begin
      id 19
      name RightHand
      direction 0.000000 0.000000 0.000000
      length 0.000000
      axis 0.0 0.0 90.0 xyz
      dof rx ry rz
   end
   begin
      id 20
      name RightHand_dum1
      direction 0.000000 0.000000 0.000000
      length 0.000000
      axis 0.0 0.0 90.0 xyz
   end
   begin
      id 21
      name RightHand_dum2
      direction -1.000000 0.000000 0.000000
      length 3.937000
      axis 0.0 0.0 90.0 xyz
   end
   begin
      id 22
      name RightHandThumb1
      direction 0.000000 0.000000 1.000000
      length 3.937000
      axis 0.0 0.0 90.0 xyz
      dof rx rz ry
   end
   begin
      id 23
      name LeftUpLeg
      direction 0.000000 -1.000000 0.000000
      length 16.346831
      axis 0.0 0.0 0.0 xyz
      dof rx ry rz
   end
   begin
      id 24
      name LeftLeg
      direction 0.000000 -1.000000 0.000000
      length 13.959795
      axis 0.0 0.0 0.0 xyz
      dof rx ry rz
   end
   begin
      id 25
      name LeftFoot
      direction 0.000000 -0.258819 0.965926
      length 5.165550
      axis 15.0 0.0 0.0 xyz
      dof rx ry rz
   end
   begin
      id 26
      name LeftToeBase
      direction 0.000000 0.000000 1.000000
      length 2.952750
      axis 0.0 0.0 0.0 xyz
      dof rx ry rz
   end
   begin
      id 27
      name RightUpLeg
      direction 0.000000 -1.000000 0.000000
      length 16.346831
      axis 0.0 0.0 0.0 xyz
      dof rx ry rz
   end
   begin
      id 28
      name RightLeg
      direction 0.000000 -1.000000 0.000000
      length 13.959795
      axis 0.0 0.0 0.0 xyz
      dof rx ry rz
   end
   begin
      id 29
      name RightFoot
      direction 0.000000 -0.258819 0.965926
      length 5.165550
      axis 15.0 0.0 0.0 xyz
      dof rx ry rz
   end
   begin
      id 30
      name RightToeBase
      direction 0.000000 0.000000 1.000000
      length 2.952750
      axis 0.0 0.0 0.0 xyz
      dof rx ry rz
   end
:hierarchy
   begin
      root Spine_dum LeftUpLeg_dum RightUpLeg_dum
      Spine_dum Spine
      LeftUpLeg_dum LeftUpLeg
      RightUpLeg_dum RightUpLeg
      Spine Spine_dum1 Spine_dum2 Spine_dum3
      Spine_dum1 Head
      Spine_dum2 LeftShoulder
      Spine_dum3 RightShoulder
      LeftShoulder LeftArm
      LeftArm LeftForeArm
      LeftForeArm LeftHand
      LeftHand LeftHand_dum1 LeftHand_dum2
      LeftHand_dum1 LeftHandThumb1
      RightShoulder RightArm
      RightArm RightForeArm
      RightForeArm RightHand
      RightHand RightHand_dum1 RightHand_dum2
      RightHand_dum1 RightHandThumb1
      LeftUpLeg LeftLeg
      LeftLeg LeftFoot
      LeftFoot LeftToeBase
      RightUpLeg RightLeg
      RightLeg RightFoot
      RightFoot RightToeBase
   end

# File created by Blade
# Date/Time:  Tue Jan 27 18:55:50 2015
# Frame Rate: 120.000 fps
#------------------------------------------------------
:FULLY-SPECIFIED
:DEGREES
1100
root -0.951368 31.706358 -4.940676 1.410924 9.263998 -5.148784
Spine 1.801113 -8.986436 0.529168
Head 14.114406 0.924753 7.712512
LeftShoulder -14.643889 14.789621 14.489281
LeftArm 12.116802 -32.204572 -71.431506
LeftForeArm -7.490532 0.000000 86.458680
LeftHand -8.799934 -0.000000 21.766381
LeftHandThumb1 -26.253704 0.000000 33.147579
RightShoulder -10.860428 -1.106877 -10.018810
RightArm 8.290523 -30.379079 79.527907
RightForeArm -27.376870 -0.000000 34.372331
RightHand -14.618740 -0.000000 9.718335
RightHandThumb1 -24.326973 -0.000000 -32.862282
LeftUpLeg -5.611015 -2.103582 -4.353417
LeftLeg 18.578646 -0.000000 -0.000000
LeftFoot -29.077025 23.683103 -20.320177
LeftToeBase 8.521010 -0.000000 -0.000000
RightUpLeg -44.484394 0.114006 -1.619002
RightLeg 66.831411 -0.000000 -0.000000
RightFoot -4.520970 -9.115325 13.467007
RightToeBase 8.277915 -0.000000 -0.000000
1101
root -0.950911 31.702373 -4.948487 1.316098 9.267191 -5.160616
Spine 1.884841 -9.061221 0.441572
Head 14.172839 0.829017 7.793313
LeftShoulder -14.611497 14.757720 14.593715
LeftArm 12.316745 -32.216057 -71.618820
LeftForeArm -7.470589 -0.000000 86.332805
LeftHand -8.782889 -0.000000 21.809668
LeftHandThumb1 -26.253704 0.000000 33.147579
RightShoulder -10.882132 -1.150803 -9.935902
RightArm 8.273126 -30.407018 79.540743
RightForeArm -27.260475 -0.000000 34.456394
RightHand -14.602193 0.000000 9.737991
RightHandThumb1 -24.326973 -0.000000 -32.862282
LeftUpLeg -5.558186 -1.990413 -4.345448
LeftLeg 18.590926 -0.000000 -0.000000
LeftFoot -29.080315 23.701278 -20.300441
LeftToeBase 8.514494 -0.000000 -0.000000
RightUpLeg -44.361265 0.193334 -1.848113
RightLeg 62.965889 -0.000000 -0.000000
RightFoot -4.577611 -9.015075 13.510625
RightToeBase 8.087071 -0.000000 -0.000000
1102
root -0.945293 31.698878 -4.955081 1.205338 9.269010 -5.153554
Spine 1.989035 -9.124596 0.347798
Head 14.228326 0.733114 7.866995
LeftShoulder -14.561554 14.662425 14.717457
LeftArm 12.439070 -32.239215 -71.804606
LeftForeArm -7.205683 -0.000000 86.206464
LeftHand -8.701987 -0.000000 21.852117
LeftHandThumb1 -26.253704 0.000000 33.147579
RightShoulder -10.933872 -1.146394 -9.863850
RightArm 8.240057 -30.475395 79.557888
RightForeArm -27.286822 -0.000000 34.421720
RightHand -14.628137 -0.000000 9.696940
RightHandThumb1 -24.326973 -0.000000 -32.862282
LeftUpLeg -5.457927 -1.901889 -4.365719
LeftLeg 18.571840 -0.000000 -0.000000
LeftFoot -29.075524 23.646059 -20.268278
LeftToeBase 8.792920 -0.000000 -0.000000
RightUpLeg -44.165584 0.270591 -2.118294
RightLeg 59.012775 -0.000000 -0.000000
RightFoot -4.617986 -9.032066 13.571336
RightToeBase 8.143075 -0.000000 -0.000000
1103
root -0.937408 31.695623 -4.959128 1.140690 9.258703 -5.123894
Spine 2.027551 -9.155307 0.244361
Head 14.287542 0.647409 7.915672
LeftShoulder -14.499241 14.554360 14.826333
LeftArm 12.529702 -32.264462 -71.946670
LeftForeArm -6.979435 0.000000 86.112081
LeftHand -8.845933 -0.000000 21.934196
LeftHandThumb1 -26.253704 0.000000 33.147579
RightShoulder -11.012522 -1.177492 -9.784148
RightArm 8.212404 -30.518071 79.571227
RightForeArm -27.314401 -0.000000 34.341783
RightHand -14.522076 0.000000 9.833023
RightHandThumb1 -24.326973 -0.000000 -32.862282
LeftUpLeg -5.378750 -1.807821 -4.410913
LeftLeg 18.556822 -0.000000 -0.000000
LeftFoot -29.021786 23.571895 -20.166705
LeftToeBase 8.725252 -0.000000 -0.000000
RightUpLeg -43.934969 0.352351 -2.427499
RightLeg 54.907973 -0.000000 -0.000000
RightFoot -4.572648 -8.910050 13.493504
RightToeBase 8.475550 -0.000000 -0.000000
